HIERARCHY
ROOT Hips
{
    OFFSET   0.000000   0.000000   0.000000
    CHANNELS 6 Xposition Yposition Zposition Zrotation Xrotation Yrotation
    JOINT Chest
    {
        OFFSET   0.000000   8.007230   0.000000
        CHANNELS 3 Zrotation Xrotation Yrotation
        JOINT Chest2
        {
            OFFSET   0.000000  22.077100   0.000000
            CHANNELS 3 Zrotation Xrotation Yrotation
            JOINT Neck
            {
                OFFSET   0.000000  23.254800  -0.000021
                CHANNELS 3 Zrotation Xrotation Yrotation
                JOINT Head
                {
                    OFFSET   0.000000  14.370000   1.956610
                    CHANNELS 3 Zrotation Xrotation Yrotation
                    End Site
                    {
                        OFFSET   0.000000  19.566000   0.000000
                    }
                }
            }
            JOINT LeftCollar
            {
                OFFSET   3.911900  19.017000  -0.467063
                CHANNELS 3 Zrotation Xrotation Yrotation
                JOINT LeftShoulder
                {
                    OFFSET  10.383700   0.000000   0.000000
                    CHANNELS 3 Zrotation Xrotation Yrotation
                    JOINT LeftElbow
                    {
                        OFFSET  26.662100   0.001529   0.000325
                        CHANNELS 3 Zrotation Xrotation Yrotation
                        JOINT LeftWrist
                        {
                            OFFSET  28.869000  -0.000011  -0.000096
                            CHANNELS 3 Zrotation Xrotation Yrotation
                            JOINT LeftFinger0
                            {
                                OFFSET   2.044650  -2.323460   3.252850
                                CHANNELS 3 Zrotation Xrotation Yrotation
                                JOINT LeftFinger01
                                {
                                    OFFSET   3.088130   0.000000   0.000000
                                    CHANNELS 3 Zrotation Xrotation Yrotation
                                    JOINT LeftFinger02
                                    {
                                        OFFSET   2.639460   0.000000   0.000000
                                        CHANNELS 3 Zrotation Xrotation Yrotation
                                        End Site
                                        {
                                            OFFSET   2.582190   0.000000   0.000000
                                        }
                                    }
                                }
                            }
                            JOINT LeftFinger1
                            {
                                OFFSET   8.364480   0.000000   3.252850
                                CHANNELS 3 Zrotation Xrotation Yrotation
                                JOINT LeftFinger11
                                {
                                    OFFSET   4.646930   0.000000   0.000000
                                    CHANNELS 3 Zrotation Xrotation Yrotation
                                    JOINT LeftFinger12
                                    {
                                        OFFSET   2.323460   0.000000   0.000000
                                        CHANNELS 3 Zrotation Xrotation Yrotation
                                        End Site
                                        {
                                            OFFSET   2.273050   0.000000   0.000000
                                        }
                                    }
                                }
                            }
                            JOINT LeftFinger2
                            {
                                OFFSET   8.364480   0.000016   1.078090
                                CHANNELS 3 Zrotation Xrotation Yrotation
                                JOINT LeftFinger21
                                {
                                    OFFSET   5.111620   0.000000   0.000000
                                    CHANNELS 3 Zrotation Xrotation Yrotation
                                    JOINT LeftFinger22
                                    {
                                        OFFSET   2.788160   0.000017   0.000000
                                        CHANNELS 3 Zrotation Xrotation Yrotation
                                        End Site
                                        {
                                            OFFSET   2.727660   0.000000   0.000000
                                        }
                                    }
                                }
                            }
                            JOINT LeftFinger3
                            {
                                OFFSET   7.899780   0.000015  -1.078090
                                CHANNELS 3 Zrotation Xrotation Yrotation
                                JOINT LeftFinger31
                                {
                                    OFFSET   4.646920   0.000000   0.000000
                                    CHANNELS 3 Zrotation Xrotation Yrotation
                                    JOINT LeftFinger32
                                    {
                                        OFFSET   2.323470   0.000000   0.000000
                                        CHANNELS 3 Zrotation Xrotation Yrotation
                                        End Site
                                        {
                                            OFFSET   2.273050   0.000000   0.000000
                                        }
                                    }
                                }
                            }
                            JOINT LeftFinger4
                            {
                                OFFSET   7.435090   0.000000  -3.252850
                                CHANNELS 3 Zrotation Xrotation Yrotation
                                JOINT LeftFinger41
                                {
                                    OFFSET   3.717550   0.000000   0.000000
                                    CHANNELS 3 Zrotation Xrotation Yrotation
                                    JOINT LeftFinger42
                                    {
                                        OFFSET   1.858760   0.000000   0.000000
                                        CHANNELS 3 Zrotation Xrotation Yrotation
                                        End Site
                                        {
                                            OFFSET   1.818440   0.000000   0.000000
                                        }
                                    }
                                }
                            }
                        }
                    }
                }
            }
            JOINT RightCollar
            {
                OFFSET  -3.911900  19.017000  -0.467062
                CHANNELS 3 Zrotation Xrotation Yrotation
                JOINT RightShoulder
                {
                    OFFSET -10.383700   0.000015   0.000000
                    CHANNELS 3 Zrotation Xrotation Yrotation
                    JOINT RightElbow
                    {
                        OFFSET -26.662100   0.001341   0.000385
                        CHANNELS 3 Zrotation Xrotation Yrotation
                        JOINT RightWrist
                        {
                            OFFSET -28.869000   0.000025  -0.000080
                            CHANNELS 3 Zrotation Xrotation Yrotation
                            JOINT RightFinger0
                            {
                                OFFSET  -2.044650  -2.323490   3.252850
                                CHANNELS 3 Zrotation Xrotation Yrotation
                                JOINT RightFinger01
                                {
                                    OFFSET  -3.088130   0.000000   0.000000
                                    CHANNELS 3 Zrotation Xrotation Yrotation
                                    JOINT RightFinger02
                                    {
                                        OFFSET  -2.639460   0.000000   0.000000
                                        CHANNELS 3 Zrotation Xrotation Yrotation
                                        End Site
                                        {
                                            OFFSET  -2.582190   0.000000   0.000000
                                        }
                                    }
                                }
                            }
                            JOINT RightFinger1
                            {
                                OFFSET  -8.364480   0.000000   3.252850
                                CHANNELS 3 Zrotation Xrotation Yrotation
                                JOINT RightFinger11
                                {
                                    OFFSET  -4.646930   0.000000   0.000000
                                    CHANNELS 3 Zrotation Xrotation Yrotation
                                    JOINT RightFinger12
                                    {
                                        OFFSET  -2.323470   0.000000   0.000000
                                        CHANNELS 3 Zrotation Xrotation Yrotation
                                        End Site
                                        {
                                            OFFSET  -2.273050   0.000000   0.000000
                                        }
                                    }
                                }
                            }
                            JOINT RightFinger2
                            {
                                OFFSET  -8.364480   0.000000   1.078090
                                CHANNELS 3 Zrotation Xrotation Yrotation
                                JOINT RightFinger21
                                {
                                    OFFSET  -5.111610   0.000000   0.000000
                                    CHANNELS 3 Zrotation Xrotation Yrotation
                                    JOINT RightFinger22
                                    {
                                        OFFSET  -2.788160   0.000000   0.000000
                                        CHANNELS 3 Zrotation Xrotation Yrotation
                                        End Site
                                        {
                                            OFFSET  -2.727660   0.000000   0.000000
                                        }
                                    }
                                }
                            }
                            JOINT RightFinger3
                            {
                                OFFSET  -7.899780   0.000000  -1.078090
                                CHANNELS 3 Zrotation Xrotation Yrotation
                                JOINT RightFinger31
                                {
                                    OFFSET  -4.646920   0.000000   0.000000
                                    CHANNELS 3 Zrotation Xrotation Yrotation
                                    JOINT RightFinger32
                                    {
                                        OFFSET  -2.323470   0.000000   0.000000
                                        CHANNELS 3 Zrotation Xrotation Yrotation
                                        End Site
                                        {
                                            OFFSET  -2.273050   0.000000   0.000000
                                        }
                                    }
                                }
                            }
                            JOINT RightFinger4
                            {
                                OFFSET  -7.435090   0.000000  -3.252850
                                CHANNELS 3 Zrotation Xrotation Yrotation
                                JOINT RightFinger41
                                {
                                    OFFSET  -3.717550   0.000000   0.000000
                                    CHANNELS 3 Zrotation Xrotation Yrotation
                                    JOINT RightFinger42
                                    {
                                        OFFSET  -1.858770   0.000000   0.000000
                                        CHANNELS 3 Zrotation Xrotation Yrotation
                                        End Site
                                        {
                                            OFFSET  -1.818440   0.000000   0.000000
                                        }
                                    }
                                }
                            }
                        }
                    }
                }
            }
        }
    }
    JOINT LeftHip
    {
        OFFSET   9.783010   0.000000   0.000000
        CHANNELS 3 Zrotation Xrotation Yrotation
        JOINT LeftKnee
        {
            OFFSET   0.000070 -41.789100   0.000028
            CHANNELS 3 Zrotation Xrotation Yrotation
            JOINT LeftAnkle
            {
                OFFSET   0.000087 -41.133200  -0.000100
                CHANNELS 3 Zrotation Xrotation Yrotation
                JOINT LeftToe
                {
                    OFFSET   0.000000  -6.358960  14.674500
                    CHANNELS 3 Zrotation Xrotation Yrotation
                    End Site
                    {
                        OFFSET   0.000000   0.000000   3.913200
                    }
                }
            }
        }
    }
    JOINT RightHip
    {
        OFFSET  -9.783020   0.000000   0.000000
        CHANNELS 3 Zrotation Xrotation Yrotation
        JOINT RightKnee
        {
            OFFSET   0.000044 -41.789100  -0.000870
            CHANNELS 3 Zrotation Xrotation Yrotation
            JOINT RightAnkle
            {
                OFFSET  -0.000090 -41.133200  -0.000245
                CHANNELS 3 Zrotation Xrotation Yrotation
                JOINT RightToe
                {
                    OFFSET   0.000000  -6.358960  14.674500
                    CHANNELS 3 Zrotation Xrotation Yrotation
                    End Site
                    {
                        OFFSET   0.000000   0.000000   3.913200
                    }
                }
            }
        }
    }
}
MOTION
Frames: 4
Frame Time:   0.016667
 -0.560931  89.436700   1.012550  -1.313030  -2.343630   2.529390   1.036540   3.082130  -0.657810   2.113090   6.151620  -1.374400  -0.539893  -0.429927  -0.006819  -0.887080  -0.871553   1.662830  -3.717870   2.544510   9.081680 -79.090900   7.196240  -0.051643  -0.294559   4.011210 -16.392400   6.552910  -8.368550  -1.806610  41.025900  31.397200 -52.290500 -28.802200  -0.002296   0.006277  -9.401100   0.013954   0.002839 -29.033300  -0.454506   0.818043 -23.757200  -0.007884   0.000642 -16.630000  -0.005628   0.001573 -29.091600  -0.660380   6.796000 -43.426100   0.001890   0.005419 -28.917400  -0.001380  -0.010784 -27.627600  -3.845460   7.320950 -31.208400   0.002813   0.001716 -20.784800   0.002002   0.000156 -31.630500  -4.365970   7.034120 -47.849200   0.002691  -0.002353 -31.867600   0.001525   0.000948   7.333960   4.633700   5.429000  69.432000  -6.463110  -2.279380   2.708720  -2.094420  17.658000 -13.326200  -1.729510   4.061960 -36.983900  29.812400  70.675400  27.162500   0.003652  -0.001791   8.581240   0.000224   0.000972  32.290900   1.806270   2.856370  26.456500  -0.005004   0.005083  18.519600  -0.003890   0.006724  34.305700  -0.403343  -0.589703  51.461200  -0.004265   0.002770  34.273200  -0.008808   0.002766  34.525400  -3.198120  -4.634970  51.981600  -0.004264   0.001830  34.619700  -0.007523   0.002385  45.131000  -3.996560  -3.967640  67.903500  -0.006695   0.001054  45.223700   0.011746   0.001296   3.813350   4.688890  -1.067750   0.094646   0.968151  11.421400  -2.774230  -3.691360   0.133118  -0.000000   0.000000   0.000000  -0.443305   6.142700  -6.943090   0.969403   0.223831 -10.203200  -0.899885  -3.441360   0.586026   0.000000   0.000000   0.000000
 -0.569785  89.436600   1.012540  -1.311890  -2.372600   2.520240   1.042760   3.111070  -0.667641   2.126500   6.209220  -1.395030  -0.537775  -0.412974  -0.006816  -0.883932  -0.837075   1.697400  -3.720150   2.555330   9.092780 -79.093700   7.209050  -0.105851  -0.295795   3.993220 -16.378400   6.564280  -8.342420  -1.797260  41.043400  31.461100 -52.348700 -28.834600  -0.002302   0.006295  -9.417290   0.014096   0.002835 -29.041100  -0.454506   0.818043 -23.763600  -0.007890   0.000689 -16.634400  -0.005683   0.001574 -29.100200  -0.632886   6.796350 -43.430900   0.002029   0.005468 -28.922800  -0.001254  -0.010881 -27.627700  -3.844950   7.319760 -31.208800   0.003008   0.001605 -20.785000   0.002146   0.000194 -31.625200  -4.360970   7.033360 -47.840300   0.002903  -0.002355 -31.861700   0.001640   0.001029   7.360440   4.607300   5.494980  69.310800  -6.430280  -2.250840   2.705780  -2.084800  17.694600 -13.139000  -1.552520   3.921760 -37.037300  29.928100  70.633700  27.266900   0.003649  -0.001800   8.633480   0.000226   0.000958  32.192000   1.749540   2.780330  26.373400  -0.004981   0.005067  18.461400  -0.003886   0.006713  34.203500  -0.448603  -0.659433  51.308600  -0.004235   0.002756  34.171500  -0.008835   0.002724  34.423500  -3.253060  -4.724580  51.836300  -0.004233   0.001812  34.523000  -0.007555   0.002340  45.026400  -4.064980  -4.046900  67.754600  -0.006680   0.001031  45.124500   0.011732   0.001262   3.819590   4.720220  -1.067760   0.094858   0.965851  11.437100  -2.779930  -3.690660   0.125972  -0.000000   0.000000   0.000000  -0.435955   6.178690  -6.938770   0.969367   0.224481 -10.196500  -0.906870  -3.440200   0.586028   0.000000   0.000000   0.000000
 -0.584457  89.436500   1.012540  -1.310310  -2.424480   2.498070   1.053670   3.162770  -0.684289   2.150050   6.312160  -1.430060  -0.522958  -0.383609  -0.006790  -0.859330  -0.777409   1.760940  -3.724300   2.573860   9.117820 -79.097600   7.255650  -0.202552  -0.298250   3.955680 -16.352900   6.579390  -8.306960  -1.787880  41.062100  31.523700 -52.409400 -28.867000  -0.002312   0.006314  -9.433490   0.014395   0.002832 -29.055300  -0.454506   0.818044 -23.775200  -0.007901   0.000789 -16.642600  -0.005795   0.001574 -29.110600  -0.590338   6.796840 -43.435700   0.002223   0.005571 -28.928200  -0.001042  -0.011084 -27.627900  -3.844440   7.318050 -31.211100   0.003282   0.001419 -20.786600   0.002348   0.000257 -31.617800  -4.355410   7.032340 -47.828300   0.003200  -0.002359 -31.853700   0.001802   0.001143   7.384690   4.572150   5.599880  69.095400  -6.397540  -2.203540   2.681030  -2.018680  17.844300 -12.721200  -1.232820   3.615900 -37.157700  30.112800  70.566400  27.371400   0.003636  -0.001809   8.685720   0.000239   0.000932  32.001400   1.692800   2.704300  26.216000  -0.004926   0.005031  18.351200  -0.003874   0.006689  34.005800  -0.509156  -0.755624  51.013500  -0.004167   0.002726  33.975000  -0.008903   0.002631  34.239800  -3.310590  -4.850530  51.569900  -0.004160   0.001773  34.345500  -0.007635   0.002240  44.838700  -4.146310  -4.159340  67.483700  -0.006644   0.000982  44.944100   0.011701   0.001186   3.831020   4.777140  -1.067810   0.094911   0.963383  11.470400  -2.789300  -3.689950   0.113845   0.000000   0.000000   0.000000  -0.423262   6.221720  -6.931080   0.969229   0.229010 -10.180300  -0.916387  -3.437060   0.586043   0.000000   0.000000   0.000000
 -0.596210  89.437000   1.012600  -1.310770  -2.473080   2.467060   1.064220   3.211790  -0.698250   2.172750   6.409770  -1.459670  -0.488822  -0.358120  -0.006724  -0.802946  -0.725711   1.820650  -3.728280   2.589780   9.152960 -79.099900   7.343450  -0.293624  -0.302060   3.910310 -16.329700   6.583380  -8.300650  -1.791840  41.025800  31.453700 -52.357700 -28.864400  -0.002322   0.006314  -9.432230   0.014798   0.002842 -29.069900  -0.458349   0.824563 -23.787200  -0.007916   0.000926 -16.651000  -0.005942   0.001578 -29.104900  -0.557619   6.797040 -43.421200   0.002306   0.005712 -28.918600  -0.000830  -0.011362 -27.630800  -3.848820   7.317180 -31.232500   0.003399   0.001233 -20.800900   0.002435   0.000319 -31.616300  -4.354770   7.032010 -47.825900   0.003328  -0.002363 -31.852100   0.001871   0.001191   7.377000   4.564060   5.678610  68.903200  -6.406700  -2.156920   2.593940  -1.861630  18.128900 -12.173000  -0.925523   3.192540 -37.319900  30.256100  70.478200  27.354400   0.003603  -0.001779   8.677240   0.000534   0.000904  31.795400   1.697270   2.716940  26.049100  -0.004845   0.004981  18.234300  -0.003854   0.006656  33.781000  -0.526999  -0.791733  50.677400  -0.004068   0.002681  33.751200  -0.009007   0.002496  34.057300  -3.313580  -4.906480  51.297300  -0.004053   0.001719  34.164000  -0.007758   0.002098  44.660400  -4.161310  -4.212920  67.218800  -0.006589   0.000914  44.767700   0.011652   0.001076   3.842810   4.832390  -1.070480   0.094601   0.963120  11.510700  -2.796580  -3.690120   0.103659   0.000000   0.000000   0.000000  -0.407496   6.226480  -6.923730   0.960284   0.274090 -10.156900  -0.918908  -3.430590   0.588379  -0.000000   0.000000  -0.000000
